<svg width="33" height="32" viewBox="0 0 33 32" fill="none" xmlns="http://www.w3.org/2000/svg">
<path d="M27.1113 9H5.11133C4.55904 9 4.11133 9.44772 4.11133 10V26C4.11133 26.5523 4.55904 27 5.11133 27H27.1113C27.6636 27 28.1113 26.5523 28.1113 26V10C28.1113 9.44772 27.6636 9 27.1113 9Z" stroke="white" stroke-linecap="round" stroke-linejoin="round"/>
<path d="M11.1113 13V9C11.1113 7.67392 11.6381 6.40215 12.5758 5.46447C13.5135 4.52678 14.7852 4 16.1113 4C17.4374 4 18.7092 4.52678 19.6469 5.46447C20.5845 6.40215 21.1113 7.67392 21.1113 9V13" stroke="white" stroke-linecap="round" stroke-linejoin="round"/>
</svg>
