<svg width="25" height="25" viewBox="0 0 25 25" fill="none" xmlns="http://www.w3.org/2000/svg">
<path d="M19.6113 4.42969H4.61133C4.19711 4.42969 3.86133 4.76547 3.86133 5.17969V20.1797C3.86133 20.5939 4.19711 20.9297 4.61133 20.9297H19.6113C20.0255 20.9297 20.3613 20.5939 20.3613 20.1797V5.17969C20.3613 4.76547 20.0255 4.42969 19.6113 4.42969Z" stroke="#10517B" stroke-linecap="round" stroke-linejoin="round"/>
<path d="M16.6113 2.92969V5.92969" stroke="#10517B" stroke-linecap="round" stroke-linejoin="round"/>
<path d="M7.61133 2.92969V5.92969" stroke="#10517B" stroke-linecap="round" stroke-linejoin="round"/>
<path d="M3.86133 8.92969H20.3613" stroke="#10517B" stroke-linecap="round" stroke-linejoin="round"/>
<path d="M16.2294 15.1067C16.2294 15.8258 16.0232 16.4555 15.7153 16.8922C15.4065 17.3304 15.0269 17.5392 14.6626 17.5392C14.2982 17.5392 13.9186 17.3304 13.6098 16.8922C13.3019 16.4555 13.0957 15.8258 13.0957 15.1067C13.0957 14.3877 13.3019 13.758 13.6098 13.3213C13.9186 12.8831 14.2982 12.6743 14.6626 12.6743C15.0269 12.6743 15.4065 12.8831 15.7153 13.3213C16.0232 13.758 16.2294 14.3877 16.2294 15.1067Z" stroke="#10517B"/>
<path d="M8.73633 12.6794H11.3613L9.86133 14.5544C10.108 14.5544 10.3508 14.6153 10.5683 14.7315C10.7858 14.8478 10.9714 15.0158 11.1084 15.2209C11.2455 15.4259 11.3298 15.6616 11.3541 15.9071C11.3783 16.1525 11.3416 16.4002 11.2473 16.628C11.153 16.8559 11.004 17.0571 10.8134 17.2136C10.6228 17.3701 10.3965 17.4773 10.1546 17.5255C9.91276 17.5737 9.66272 17.5616 9.42667 17.4901C9.19061 17.4186 8.97582 17.29 8.80131 17.1157" stroke="#10517B" stroke-linecap="round" stroke-linejoin="round"/>
</svg>
