<svg width="33" height="32" viewBox="0 0 33 32" fill="none" xmlns="http://www.w3.org/2000/svg">
<path d="M12.1113 19H20.1113" stroke="white" stroke-linecap="round" stroke-linejoin="round"/>
<path d="M12.1113 15H20.1113" stroke="white" stroke-linecap="round" stroke-linejoin="round"/>
<path d="M20.1116 5H25.1113C25.3765 5 25.6309 5.10536 25.8184 5.29289C26.006 5.48043 26.1113 5.73478 26.1113 6V27C26.1113 27.2652 26.006 27.5196 25.8184 27.7071C25.6309 27.8946 25.3765 28 25.1113 28H7.11133C6.84611 28 6.59176 27.8946 6.40422 27.7071C6.21669 27.5196 6.11133 27.2652 6.11133 27V6C6.11133 5.73478 6.21669 5.48043 6.40422 5.29289C6.59176 5.10536 6.84611 5 7.11133 5H12.1111" stroke="white" stroke-linecap="round" stroke-linejoin="round"/>
<path d="M11.1113 9V8C11.1113 6.67392 11.6381 5.40215 12.5758 4.46447C13.5135 3.52678 14.7852 3 16.1113 3C17.4374 3 18.7092 3.52678 19.6469 4.46447C20.5845 5.40215 21.1113 6.67392 21.1113 8V9H11.1113Z" stroke="white" stroke-linecap="round" stroke-linejoin="round"/>
</svg>
