<svg width="25" height="25" viewBox="0 0 25 25" fill="none" xmlns="http://www.w3.org/2000/svg">
<path d="M12.1113 2.75V22.25" stroke="#10517B" stroke-linecap="round" stroke-linejoin="round"/>
<path d="M17.3613 8.75C17.3613 8.25754 17.2643 7.76991 17.0759 7.31494C16.8874 6.85997 16.6112 6.44657 16.263 6.09835C15.9148 5.75013 15.5014 5.47391 15.0464 5.28545C14.5914 5.097 14.1038 5 13.6113 5H10.2363C9.24177 5 8.28794 5.39509 7.58468 6.09835C6.88142 6.80161 6.48633 7.75544 6.48633 8.75C6.48633 9.74456 6.88142 10.6984 7.58468 11.4017C8.28794 12.1049 9.24177 12.5 10.2363 12.5H14.3613C15.3559 12.5 16.3097 12.8951 17.013 13.5983C17.7162 14.3016 18.1113 15.2554 18.1113 16.25C18.1113 17.2446 17.7162 18.1984 17.013 18.9017C16.3097 19.6049 15.3559 20 14.3613 20H9.86133C8.86677 20 7.91294 19.6049 7.20968 18.9017C6.50642 18.1984 6.11133 17.2446 6.11133 16.25" stroke="#10517B" stroke-linecap="round" stroke-linejoin="round"/>
</svg>
