<svg width="25" height="25" viewBox="0 0 25 25" fill="none" xmlns="http://www.w3.org/2000/svg">
<path d="M12.1113 12.6797L6.41133 8.40469C6.31818 8.33483 6.24258 8.24424 6.19051 8.1401C6.13844 8.03596 6.11133 7.92112 6.11133 7.80469V4.42969C6.11133 4.23078 6.19035 4.04001 6.331 3.89936C6.47165 3.75871 6.66242 3.67969 6.86133 3.67969H17.3613C17.5602 3.67969 17.751 3.75871 17.8917 3.89936C18.0323 4.04001 18.1113 4.23078 18.1113 4.42969V7.77105C18.1113 7.88701 18.0844 8.00138 18.0328 8.1052C17.9811 8.20901 17.9061 8.29943 17.8136 8.36935L12.1113 12.6797Z" stroke="#10517B" stroke-linecap="round" stroke-linejoin="round"/>
<path d="M12.1113 12.6797L6.41133 16.9547C6.31818 17.0245 6.24258 17.1151 6.19051 17.2193C6.13844 17.3234 6.11133 17.4383 6.11133 17.5547V20.9297C6.11133 21.1286 6.19035 21.3194 6.331 21.46C6.47165 21.6007 6.66242 21.6797 6.86133 21.6797H17.3613C17.5602 21.6797 17.751 21.6007 17.8917 21.46C18.0323 21.3194 18.1113 21.1286 18.1113 20.9297V17.5883C18.1113 17.4724 18.0844 17.358 18.0328 17.2542C17.9811 17.1504 17.9061 17.0599 17.8136 16.99L12.1113 12.6797Z" stroke="#10517B" stroke-linecap="round" stroke-linejoin="round"/>
</svg>
