<svg width="30" height="30" viewBox="0 0 30 30" fill="none" xmlns="http://www.w3.org/2000/svg">
<path d="M25.6364 12.1524L16.2606 3.62863C15.9162 3.31329 15.4662 3.1384 14.9992 3.13843C14.5323 3.13846 14.0823 3.31341 13.7379 3.6288L4.36375 12.1523C4.17062 12.3282 4.01628 12.5424 3.91061 12.7813C3.80493 13.0202 3.75023 13.2785 3.75 13.5397V24.3321C3.74463 24.8033 3.9118 25.2602 4.22 25.6167C4.39559 25.8162 4.6118 25.976 4.85416 26.0852C5.09651 26.1944 5.35941 26.2506 5.62524 26.2499H11.2459C11.4945 26.2499 11.733 26.1511 11.9088 25.9753C12.0846 25.7995 12.1834 25.561 12.1834 25.3124V19.6865C12.1834 19.4379 12.2822 19.1994 12.458 19.0236C12.6338 18.8478 12.8722 18.749 13.1209 18.749H16.8709C17.1195 18.749 17.358 18.8478 17.5338 19.0236C17.7096 19.1994 17.8084 19.4379 17.8084 19.6865V25.3124C17.8084 25.561 17.9072 25.7995 18.083 25.9753C18.2588 26.1511 18.4972 26.2499 18.7459 26.2499H24.3776C24.6856 26.2539 24.9896 26.179 25.2605 26.0324C25.5595 25.871 25.8094 25.6317 25.9835 25.3399C26.1577 25.0481 26.2498 24.7147 26.25 24.3749V13.5397C26.2498 13.2785 26.1951 13.0202 26.0894 12.7814C25.9837 12.5425 25.8295 12.3283 25.6364 12.1524Z" fill="#2C9CC5"/>
</svg>
