<svg width="33" height="32" viewBox="0 0 33 32" fill="none" xmlns="http://www.w3.org/2000/svg">
<path d="M16.1113 21C18.8728 21 21.1113 18.7614 21.1113 16C21.1113 13.2386 18.8728 11 16.1113 11C13.3499 11 11.1113 13.2386 11.1113 16C11.1113 18.7614 13.3499 21 16.1113 21Z" stroke="white" stroke-width="1.5" stroke-linecap="round" stroke-linejoin="round"/>
<path d="M21.6113 4.5H10.6113C7.29762 4.5 4.61133 7.18629 4.61133 10.5V21.5C4.61133 24.8137 7.29762 27.5 10.6113 27.5H21.6113C24.925 27.5 27.6113 24.8137 27.6113 21.5V10.5C27.6113 7.18629 24.925 4.5 21.6113 4.5Z" stroke="white" stroke-width="1.5" stroke-linecap="round" stroke-linejoin="round"/>
<path d="M22.6113 10.75C23.3017 10.75 23.8613 10.1904 23.8613 9.5C23.8613 8.80964 23.3017 8.25 22.6113 8.25C21.921 8.25 21.3613 8.80964 21.3613 9.5C21.3613 10.1904 21.921 10.75 22.6113 10.75Z" fill="white"/>
</svg>
