<svg width="33" height="32" viewBox="0 0 33 32" fill="none" xmlns="http://www.w3.org/2000/svg">
<path d="M26.1113 5H6.11133C5.55904 5 5.11133 5.44772 5.11133 6V26C5.11133 26.5523 5.55904 27 6.11133 27H26.1113C26.6636 27 27.1113 26.5523 27.1113 26V6C27.1113 5.44772 26.6636 5 26.1113 5Z" stroke="white" stroke-width="1.5" stroke-linecap="round" stroke-linejoin="round"/>
<path d="M15.1113 14.0001V22.0001" stroke="white" stroke-width="1.5" stroke-linecap="round" stroke-linejoin="round"/>
<path d="M11.1113 14.0001V22.0001" stroke="white" stroke-width="1.5" stroke-linecap="round" stroke-linejoin="round"/>
<path d="M15.1113 17.5001C15.1113 16.5719 15.4801 15.6816 16.1365 15.0252C16.7928 14.3689 17.6831 14.0001 18.6113 14.0001C19.5396 14.0001 20.4298 14.3689 21.0862 15.0252C21.7426 15.6816 22.1113 16.5719 22.1113 17.5001V22.0001" stroke="white" stroke-width="1.5" stroke-linecap="round" stroke-linejoin="round"/>
<path d="M11.1113 11.25C11.8017 11.25 12.3613 10.6904 12.3613 10C12.3613 9.30964 11.8017 8.75 11.1113 8.75C10.421 8.75 9.86133 9.30964 9.86133 10C9.86133 10.6904 10.421 11.25 11.1113 11.25Z" fill="white"/>
</svg>
