<svg width="33" height="32" viewBox="0 0 33 32" fill="none" xmlns="http://www.w3.org/2000/svg">
<path d="M16.1104 20C17.4911 20 18.6104 18.8807 18.6104 17.5C18.6104 16.1193 17.4911 15 16.1104 15C14.7296 15 13.6104 16.1193 13.6104 17.5C13.6104 18.8807 14.7296 20 16.1104 20Z" stroke="white" stroke-linecap="round" stroke-linejoin="round"/>
<path d="M16.1104 20V23" stroke="white" stroke-linecap="round" stroke-linejoin="round"/>
<path d="M26.1104 11H6.11035C5.55807 11 5.11035 11.4477 5.11035 12V26C5.11035 26.5523 5.55807 27 6.11035 27H26.1104C26.6626 27 27.1104 26.5523 27.1104 26V12C27.1104 11.4477 26.6626 11 26.1104 11Z" stroke="white" stroke-linecap="round" stroke-linejoin="round"/>
<path d="M11.6104 11V6.5C11.6104 5.30653 12.0845 4.16193 12.9284 3.31802C13.7723 2.47411 14.9169 2 16.1104 2C17.3038 2 18.4484 2.47411 19.2923 3.31802C20.1362 4.16193 20.6104 5.30653 20.6104 6.5V11" stroke="white" stroke-linecap="round" stroke-linejoin="round"/>
</svg>
