<svg width="33" height="32" viewBox="0 0 33 32" fill="none" xmlns="http://www.w3.org/2000/svg">
<path d="M7.7749 29H25.7749" stroke="white" stroke-linecap="round" stroke-linejoin="round"/>
<path d="M16.7749 17C18.984 17 20.7749 15.2091 20.7749 13C20.7749 10.7909 18.984 9 16.7749 9C14.5658 9 12.7749 10.7909 12.7749 13C12.7749 15.2091 14.5658 17 16.7749 17Z" stroke="white" stroke-linecap="round" stroke-linejoin="round"/>
<path d="M26.7749 13C26.7749 22 16.7749 29 16.7749 29C16.7749 29 6.7749 22 6.7749 13C6.7749 10.3478 7.82847 7.8043 9.70383 5.92893C11.5792 4.05357 14.1227 3 16.7749 3C19.4271 3 21.9706 4.05357 23.846 5.92893C25.7213 7.8043 26.7749 10.3478 26.7749 13V13Z" stroke="white" stroke-linecap="round" stroke-linejoin="round"/>
</svg>
