<svg width="33" height="32" viewBox="0 0 33 32" fill="none" xmlns="http://www.w3.org/2000/svg">
<path d="M12.1113 12H20.1113" stroke="white" stroke-linecap="round" stroke-linejoin="round"/>
<path d="M12.1113 16H20.1113" stroke="white" stroke-linecap="round" stroke-linejoin="round"/>
<path d="M12.1113 20H16.1113" stroke="white" stroke-linecap="round" stroke-linejoin="round"/>
<path d="M19.6971 27H6.11133C5.84611 27 5.59176 26.8946 5.40422 26.7071C5.21669 26.5196 5.11133 26.2652 5.11133 26V6C5.11133 5.73478 5.21669 5.48043 5.40422 5.29289C5.59176 5.10536 5.84611 5 6.11133 5H26.1113C26.3765 5 26.6309 5.10536 26.8184 5.29289C27.006 5.48043 27.1113 5.73478 27.1113 6V19.5858C27.1113 19.7171 27.0855 19.8471 27.0352 19.9685C26.985 20.0898 26.9113 20.2 26.8184 20.2929L20.4042 26.7071C20.3114 26.8 20.2011 26.8736 20.0798 26.9239C19.9585 26.9741 19.8284 27 19.6971 27V27Z" stroke="white" stroke-linecap="round" stroke-linejoin="round"/>
<path d="M27.021 19.999H20.1113V26.909" stroke="white" stroke-linecap="round" stroke-linejoin="round"/>
</svg>
