<svg width="33" height="32" viewBox="0 0 33 32" fill="none" xmlns="http://www.w3.org/2000/svg">
<path d="M28.2169 15.1276L7.10249 3.30352C6.92486 3.20405 6.7211 3.16116 6.51845 3.18059C6.31579 3.20002 6.12389 3.28085 5.9684 3.41226C5.81291 3.54367 5.70123 3.71941 5.64829 3.916C5.59535 4.11258 5.60368 4.32064 5.67215 4.51236L9.65478 15.6637C9.73246 15.8812 9.73246 16.1189 9.65478 16.3364L5.67215 27.4878C5.60368 27.6795 5.59535 27.8876 5.64829 28.0841C5.70123 28.2807 5.81291 28.4565 5.9684 28.5879C6.12389 28.7193 6.31579 28.8001 6.51845 28.8195C6.72111 28.839 6.92487 28.7961 7.1025 28.6966L28.2169 16.8726C28.372 16.7857 28.5011 16.6591 28.591 16.5057C28.6809 16.3524 28.7282 16.1778 28.7282 16.0001C28.7282 15.8223 28.6809 15.6478 28.591 15.4944C28.5011 15.341 28.3719 15.2144 28.2169 15.1276V15.1276Z" stroke="white" stroke-linecap="round" stroke-linejoin="round"/>
<path d="M9.7749 16H17.7749" stroke="white" stroke-linecap="round" stroke-linejoin="round"/>
</svg>
