<svg width="25" height="24" viewBox="0 0 25 24" fill="none" xmlns="http://www.w3.org/2000/svg">
<path d="M8.78098 11.7015C9.55895 13.292 10.8482 14.5754 12.4422 15.3461C12.5589 15.4013 12.6879 15.4253 12.8166 15.4155C12.9452 15.4058 13.0692 15.3627 13.1762 15.2905L15.5233 13.7255C15.6271 13.6562 15.7465 13.614 15.8707 13.6026C15.995 13.5912 16.1201 13.6109 16.2348 13.6601L20.6258 15.5419C20.7749 15.6053 20.8995 15.7154 20.9806 15.8557C21.0617 15.996 21.0951 16.1589 21.0756 16.3197C20.9368 17.4057 20.4069 18.4039 19.5852 19.1274C18.7634 19.8508 17.7062 20.25 16.6113 20.25C13.2298 20.25 9.98681 18.9067 7.59572 16.5156C5.20463 14.1246 3.86133 10.8815 3.86133 7.50003C3.86139 6.40519 4.26051 5.34792 4.98397 4.52616C5.70742 3.70441 6.7056 3.17454 7.79161 3.03575C7.9525 3.01628 8.11536 3.04962 8.25565 3.13076C8.39594 3.21189 8.50606 3.33642 8.56942 3.48558L10.4529 7.88038C10.5016 7.99406 10.5215 8.11802 10.5107 8.24122C10.4999 8.36442 10.4588 8.48305 10.3911 8.58653L8.83144 10.9696C8.76045 11.0768 8.71849 11.2006 8.70964 11.3289C8.7008 11.4572 8.72538 11.5855 8.78098 11.7015V11.7015Z" stroke="white" stroke-width="1.5" stroke-linecap="round" stroke-linejoin="round"/>
</svg>
