<svg width="33" height="32" viewBox="0 0 33 32" fill="none" xmlns="http://www.w3.org/2000/svg">
<path d="M16.1113 28C22.7387 28 28.1113 22.6274 28.1113 16C28.1113 9.37258 22.7387 4 16.1113 4C9.48391 4 4.11133 9.37258 4.11133 16C4.11133 22.6274 9.48391 28 16.1113 28Z" stroke="white" stroke-linecap="round" stroke-linejoin="round"/>
<path d="M16.1113 23.5C16.6636 23.5 17.1113 23.0523 17.1113 22.5C17.1113 21.9477 16.6636 21.5 16.1113 21.5C15.559 21.5 15.1113 21.9477 15.1113 22.5C15.1113 23.0523 15.559 23.5 16.1113 23.5Z" fill="white"/>
<path d="M16.1113 18.0006V17.0006C16.8036 17.0006 17.4803 16.7953 18.0558 16.4107C18.6314 16.0261 19.08 15.4795 19.3449 14.84C19.6098 14.2004 19.6791 13.4967 19.5441 12.8177C19.409 12.1388 19.0757 11.5152 18.5862 11.0257C18.0967 10.5362 17.4731 10.2029 16.7941 10.0678C16.1152 9.93277 15.4115 10.0021 14.7719 10.267C14.1324 10.5319 13.5858 10.9805 13.2012 11.5561C12.8166 12.1316 12.6113 12.8083 12.6113 13.5006" stroke="white" stroke-linecap="round" stroke-linejoin="round"/>
</svg>
