<svg width="33" height="32" viewBox="0 0 33 32" fill="none" xmlns="http://www.w3.org/2000/svg">
<path d="M23.1113 23H8.8386L5.35153 3.82112C5.30964 3.5907 5.18821 3.3823 5.00841 3.23225C4.82861 3.08219 4.60185 3 4.36766 3H2.11133" stroke="white" stroke-linecap="round" stroke-linejoin="round"/>
<path d="M10.1113 28C11.492 28 12.6113 26.8807 12.6113 25.5C12.6113 24.1193 11.492 23 10.1113 23C8.73062 23 7.61133 24.1193 7.61133 25.5C7.61133 26.8807 8.73062 28 10.1113 28Z" stroke="white" stroke-linecap="round" stroke-linejoin="round"/>
<path d="M23.1113 28C24.492 28 25.6113 26.8807 25.6113 25.5C25.6113 24.1193 24.492 23 23.1113 23C21.7306 23 20.6113 24.1193 20.6113 25.5C20.6113 26.8807 21.7306 28 23.1113 28Z" stroke="white" stroke-linecap="round" stroke-linejoin="round"/>
<path d="M7.92951 18H23.624C24.0924 18 24.5459 17.8356 24.9055 17.5355C25.2651 17.2354 25.5079 16.8186 25.5917 16.3578L27.1113 8H6.11133" stroke="white" stroke-linecap="round" stroke-linejoin="round"/>
</svg>
