<svg width="30" height="30" viewBox="0 0 30 30" fill="none" xmlns="http://www.w3.org/2000/svg">
<path d="M27.1863 11.2265C27.186 11.2125 27.1852 11.1986 27.1842 11.1846C27.1827 11.1631 27.1805 11.1419 27.1776 11.1208C27.1759 11.1087 27.1742 11.0967 27.1721 11.0846C27.1676 11.0598 27.162 11.0355 27.1557 11.0114C27.154 11.0052 27.1533 10.9987 27.1515 10.9925L25.4708 5.10984C25.3576 4.71875 25.1208 4.37486 24.7958 4.1297C24.4707 3.88454 24.075 3.75132 23.6679 3.75H6.33213C5.925 3.75132 5.52926 3.88455 5.20422 4.12972C4.87918 4.37489 4.64235 4.7188 4.52923 5.1099L2.84855 10.9925C2.84675 10.9987 2.84597 11.0052 2.84431 11.0114C2.83796 11.0355 2.83238 11.0598 2.82795 11.0846C2.8258 11.0967 2.82412 11.1087 2.82243 11.1208C2.81951 11.1419 2.81731 11.1631 2.81582 11.1846C2.81482 11.1986 2.81404 11.2125 2.8137 11.2265C2.8135 11.2344 2.8125 11.242 2.8125 11.25V13.125C2.81256 13.8523 2.98203 14.5697 3.30748 15.2201C3.63294 15.8706 4.10543 16.4363 4.6875 16.8724V24.375C4.68807 24.8721 4.8858 25.3487 5.2373 25.7002C5.58881 26.0517 6.06539 26.2494 6.5625 26.25H23.4375C23.9346 26.2494 24.4112 26.0517 24.7627 25.7002C25.1142 25.3487 25.3119 24.8721 25.3125 24.375V16.8724C25.8946 16.4363 26.3671 15.8706 26.6925 15.2201C27.018 14.5697 27.1874 13.8523 27.1875 13.125V11.25C27.1875 11.242 27.1865 11.2344 27.1863 11.2265ZM4.6875 12.1875H10.3125V13.125C10.3128 13.6089 10.1882 14.0846 9.95075 14.5062C9.71328 14.9278 9.371 15.2809 8.95703 15.5315C8.54307 15.782 8.07144 15.9214 7.58779 15.9362C7.10415 15.951 6.62488 15.8407 6.19637 15.6159C6.13132 15.5654 6.05988 15.5238 5.98391 15.492C5.58668 15.2378 5.25975 14.8878 5.0332 14.4742C4.80666 14.0606 4.68778 13.5966 4.6875 13.125V12.1875ZM17.8125 13.125C17.8125 13.8709 17.5162 14.5863 16.9887 15.1137C16.4613 15.6412 15.7459 15.9375 15 15.9375C14.2541 15.9375 13.5387 15.6412 13.0113 15.1137C12.4838 14.5863 12.1875 13.8709 12.1875 13.125V12.1875H17.8125V13.125ZM24.0155 15.4924C23.94 15.524 23.869 15.5654 23.8043 15.6156C23.3758 15.8405 22.8965 15.9509 22.4128 15.9362C21.9291 15.9215 21.4574 15.7822 21.0433 15.5317C20.6293 15.2812 20.2869 14.928 20.0494 14.5064C19.8118 14.0848 19.6872 13.6089 19.6875 13.125V12.1875H25.3125V13.125C25.3122 13.5967 25.1933 14.0608 24.9666 14.4745C24.74 14.8882 24.4129 15.2382 24.0155 15.4924Z" fill="#2C9CC5"/>
</svg>
