<svg width="25" height="25" viewBox="0 0 25 25" fill="none" xmlns="http://www.w3.org/2000/svg">
<path d="M3.86133 6.67969V18.6797C3.86133 19.0775 4.01936 19.459 4.30067 19.7403C4.58197 20.0217 4.9635 20.1797 5.36133 20.1797H20.3613C20.5602 20.1797 20.751 20.1007 20.8917 19.96C21.0323 19.8194 21.1113 19.6286 21.1113 19.4297V8.92969C21.1113 8.73078 21.0323 8.54001 20.8917 8.39936C20.751 8.25871 20.5602 8.17969 20.3613 8.17969H5.36133C4.9635 8.17969 4.58197 8.02165 4.30067 7.74035C4.01936 7.45904 3.86133 7.07751 3.86133 6.67969ZM3.86133 6.67969C3.86133 6.28186 4.01936 5.90033 4.30067 5.61903C4.58197 5.33772 4.9635 5.17969 5.36133 5.17969H18.1113" stroke="#10517B" stroke-linecap="round" stroke-linejoin="round"/>
<path d="M16.9863 14.9297C17.4005 14.9297 17.7363 14.5939 17.7363 14.1797C17.7363 13.7655 17.4005 13.4297 16.9863 13.4297C16.5721 13.4297 16.2363 13.7655 16.2363 14.1797C16.2363 14.5939 16.5721 14.9297 16.9863 14.9297Z" fill="#10517B"/>
</svg>
