<svg width="25" height="25" viewBox="0 0 25 25" fill="none" xmlns="http://www.w3.org/2000/svg">
<path d="M17.4543 3.79545L13.5204 7.72937L14.0507 10.381L16.7024 10.9114L20.6363 6.97743L20.6367 6.97727C21.1236 8.12667 21.2401 9.39929 20.9699 10.618C20.6996 11.8367 20.0562 12.9408 19.1291 13.7766C18.2019 14.6125 17.0373 15.1385 15.7972 15.2815C14.5571 15.4244 13.3033 15.1772 12.2103 14.5742L12.2105 14.574L6.95239 20.6614C6.53035 21.0829 5.95818 21.3196 5.36166 21.3195C4.76515 21.3193 4.19311 21.0822 3.77131 20.6604C3.34951 20.2386 3.11247 19.6666 3.1123 19.0701C3.11214 18.4736 3.34885 17.9014 3.77041 17.4794L9.85772 12.2214L9.8576 12.2214C9.25459 11.1284 9.00735 9.87466 9.1503 8.63458C9.29324 7.3945 9.81925 6.22984 10.6551 5.30272C11.491 4.37559 12.5951 3.73214 13.8138 3.46191C15.0325 3.19169 16.3051 3.30814 17.4545 3.79507L17.4543 3.79545Z" stroke="#10517B" stroke-linecap="round" stroke-linejoin="round"/>
</svg>
